<svg width="98" height="97" viewBox="0 0 98 97" fill="none" xmlns="http://www.w3.org/2000/svg">
<path opacity="0.5" d="M97 48C97 74.5097 75.5097 96 49 96C22.4903 96 1 74.5097 1 48C1 21.4903 22.4903 0 49 0C75.5097 0 97 21.4903 97 48ZM5.70166 48C5.70166 71.913 25.087 91.2983 49 91.2983C72.913 91.2983 92.2983 71.913 92.2983 48C92.2983 24.087 72.913 4.70166 49 4.70166C25.087 4.70166 5.70166 24.087 5.70166 48Z" fill="#F68080"/>
<path d="M94.7956 48C96.5653 48 98.0109 49.4365 97.8953 51.2025C97.1212 63.0288 92.0798 74.2167 83.6482 82.6482C74.4589 91.8375 61.9956 97 49 97C36.0044 97 23.541 91.8375 14.3518 82.6482C5.92024 74.2167 0.878789 63.0288 0.104673 51.2025C-0.0109199 49.4365 1.43466 48 3.2044 48C4.97414 48 6.39625 49.4368 6.5292 51.2015C7.29204 61.3265 11.6541 70.8871 18.8835 78.1165C26.8709 86.1039 37.7041 90.5912 49 90.5912C60.2959 90.5912 71.1291 86.1039 79.1165 78.1165C86.3459 70.8872 90.708 61.3265 91.4708 51.2015C91.6037 49.4368 93.0259 48 94.7956 48Z" fill="#FF4948"/>
<circle cx="48.5" cy="47.5" r="34.5" stroke="#FDD8D8" stroke-width="2" stroke-linecap="round"/>
<g clip-path="url(#clip0_0_1)">
<path d="M38.3878 39.5521C38.1362 39.3004 37.7281 39.3003 37.4763 39.552C35.9664 41.0616 35.1348 43.0672 35.1348 45.1993C35.1348 47.3315 35.9663 49.337 37.4763 50.8467C37.6022 50.9725 37.7671 51.0354 37.932 51.0354C38.097 51.0354 38.262 50.9724 38.3878 50.8465C38.6395 50.5948 38.6395 50.1867 38.3878 49.935C37.1213 48.6689 36.4239 46.9871 36.4239 45.1992C36.4239 43.4115 37.1213 41.7296 38.3878 40.4635C38.6395 40.2119 38.6395 39.8038 38.3878 39.5521Z" fill="#FF4948"/>
<path d="M56.3073 42.74C55.9514 42.74 55.6628 43.0286 55.6628 43.3845V44.3756H54.2094V37.5103C54.2094 34.3648 51.6474 31.8057 48.4984 31.8057C45.3504 31.8057 42.7893 34.3648 42.7893 37.5103V44.3756H41.3359V43.3846C41.3359 43.0287 41.0474 42.7401 40.6914 42.7401C40.3354 42.7401 40.0469 43.0287 40.0469 43.3846V47.187C40.0469 50.9726 42.5518 54.1845 45.9922 55.2543V58.7327H43.7627C42.5308 58.7327 41.5287 59.7335 41.5287 60.9635V62.3162C41.5287 62.8004 41.9235 63.1943 42.4089 63.1943H45.6044C45.9604 63.1943 46.2489 62.9057 46.2489 62.5498C46.2489 62.1939 45.9604 61.9053 45.6044 61.9053H42.8177V60.9635C42.8177 60.4442 43.2417 60.0218 43.7627 60.0218H53.236C53.7561 60.0218 54.1792 60.4443 54.1792 60.9635V61.9053H51.3926C51.0366 61.9053 50.748 62.1939 50.748 62.5498C50.748 62.9057 51.0366 63.1943 51.3926 63.1943H54.5899C55.0742 63.1943 55.4682 62.8004 55.4682 62.3162V60.9635C55.4682 59.7335 54.4668 58.7327 53.236 58.7327H51.0047V55.2544C54.4461 54.1848 56.9519 50.9728 56.9519 47.187V43.3846C56.9518 43.0286 56.6632 42.74 56.3073 42.74ZM44.0783 37.5103C44.0783 35.0756 46.0611 33.0947 48.4984 33.0947C50.9366 33.0947 52.9202 35.0756 52.9202 37.5103V39.6405H44.0783V37.5103ZM44.0783 40.9295H52.9203V42.6105H44.0783V40.9295ZM44.0783 43.8995H52.9203V47.187C52.9203 49.6217 50.9367 51.6026 48.4984 51.6026C46.0612 51.6026 44.0784 49.6217 44.0784 47.187V43.8995H44.0783ZM49.7156 58.7326H47.2812V55.5454C47.6788 55.603 48.0851 55.6334 48.4984 55.6334C48.9118 55.6334 49.3181 55.603 49.7157 55.5455V58.7326H49.7156ZM55.6628 47.187C55.6628 51.1335 52.4489 54.3443 48.4984 54.3443C44.549 54.3443 41.3359 51.1336 41.3359 47.187V45.6647H42.7893V47.187C42.7893 50.3325 45.3504 52.8916 48.4984 52.8916C51.6474 52.8916 54.2094 50.3325 54.2094 47.187V45.6647H55.6628V47.187Z" fill="#FF4948"/>
<path d="M61.7387 37.337C61.4869 37.0853 61.0787 37.0857 60.8272 37.3374C60.5757 37.5892 60.5758 37.9974 60.8277 38.249C62.6869 40.1066 63.7109 42.5751 63.7109 45.1997C63.7109 47.8243 62.6869 50.2928 60.8277 52.1504C60.5759 52.402 60.5757 52.8101 60.8273 53.062C60.9532 53.1879 61.1182 53.251 61.2832 53.251C61.4481 53.251 61.6129 53.188 61.7388 53.0624C63.8417 50.9612 65 48.1688 65 45.1997C65 42.2305 63.8417 39.4381 61.7387 37.337Z" fill="#FF4948"/>
<path d="M59.522 39.5519C59.27 39.3002 58.862 39.3005 58.6104 39.5522C58.3589 39.8041 58.3591 40.2122 58.6108 40.4638C59.878 41.7299 60.5759 43.4116 60.5759 45.1994C60.5759 46.9871 59.878 48.6689 58.6108 49.935C58.3591 50.1866 58.3589 50.5947 58.6104 50.8466C58.7363 50.9725 58.9014 51.0355 59.0664 51.0355C59.2312 51.0355 59.396 50.9726 59.5219 50.8469C61.0328 49.3373 61.865 47.3317 61.865 45.1994C61.865 43.0671 61.0329 41.0615 59.522 39.5519Z" fill="#FF4948"/>
<path d="M33.2891 45.1997C33.2891 42.575 34.3126 40.1065 36.171 38.2488C36.4228 37.9972 36.4229 37.5892 36.1712 37.3373C35.9195 37.0855 35.5115 37.0855 35.2597 37.3372C33.1576 39.4383 32 42.2306 32 45.1997C32 48.1688 33.1576 50.9612 35.2597 53.0622C35.3855 53.188 35.5505 53.251 35.7153 53.251C35.8803 53.251 36.0453 53.188 36.1712 53.062C36.4228 52.8103 36.4228 52.4022 36.171 52.1505C34.3126 50.2929 33.2891 47.8244 33.2891 45.1997Z" fill="#FF4948"/>
<path d="M48.498 61.9053C48.1421 61.9053 47.8535 62.1939 47.8535 62.5498C47.8535 62.9057 48.1421 63.1943 48.498 63.1943H48.5017C48.8576 63.1943 49.1445 62.9057 49.1445 62.5498C49.1445 62.1939 48.854 61.9053 48.498 61.9053Z" fill="#FF4948"/>
</g>
<defs>
<clipPath id="clip0_0_1">
<rect width="33" height="33" fill="white" transform="translate(32 31)"/>
</clipPath>
</defs>
</svg>
